# xmcd
#
# Track frame offsets:
#	150
#	9770
#	18994
#	27793
#	38602
#	49190
#	59192
#	68626
#	77043
#	86058
#	95061
#	105161
#	116233
#	125632
#	134510
#	141691
#	151523
#	160448
#	170145
#	175537
#
# Disc length: 2531 seconds
#
# Revision: 0
# Processed by: cddbd v1.5.2PL0 Copyright (c) Steve Scherf et al.
# Submitted via: EasyCDDAExtractor 16.0.1.1
#
DISCID=0c09e114
DTITLE=J  E  Mainer - The Legendary J  E  Mainer - Volume 3
DYEAR=1900
DGENRE=Western
TTITLE0=Seven And A Half
TTITLE1=Devilish Mary
TTITLE2=Hannah
TTITLE3=Baby Buntin
TTITLE4=Ride Old Buck To Water
TTITLE5=Casey Jones
TTITLE6=Arkansas Traveler
TTITLE7=Cange In Buisness All Around
TTITLE8=Polly Put The Kettle On
TTITLE9=Shady Grove
TTITLE10=Old Blind Horse
TTITLE11=Papa's Billy Goat
TTITLE12=Burglar Man
TTITLE13=Don't Tax The Gals 
TTITLE14=Eleven Cents Cotton
TTITLE15=Home Sweet Home
TTITLE16=Shortenin' Bread
TTITLE17=Johnny Get Your Gun
TTITLE18=I Had An Old Grey Mare
TTITLE19=Alabama Camp Meeting
EXTD=
EXTT0=
EXTT1=
EXTT2=
EXTT3=
EXTT4=
EXTT5=
EXTT6=
EXTT7=
EXTT8=
EXTT9=
EXTT10=
EXTT11=
EXTT12=
EXTT13=
EXTT14=
EXTT15=
EXTT16=
EXTT17=
EXTT18=
EXTT19=
PLAYORDER=
